<svg xmlns="http://www.w3.org/2000/svg" viewBox="0 0 256 256">
  <rect width="256" height="256" rx="48" fill="#22311f"/>
  <path d="M128 44c24 0 44 20 44 44v24c0 24-20 44-44 44s-44-20-44-44V88c0-24 20-44 44-44Z" fill="#f2c94c"/>
  <path d="M84 92h88v20H84zm0 40h88v20H84z" fill="#2f2412"/>
  <circle cx="96" cy="74" r="24" fill="#d4f6a3"/>
  <circle cx="160" cy="74" r="24" fill="#d4f6a3"/>
  <circle cx="112" cy="110" r="6" fill="#2f2412"/>
  <circle cx="144" cy="110" r="6" fill="#2f2412"/>
  <path d="M112 130c8 8 24 8 32 0" fill="none" stroke="#2f2412" stroke-linecap="round" stroke-width="8"/>
  <path d="M128 156v36" fill="none" stroke="#2f2412" stroke-linecap="round" stroke-width="10"/>
  <path d="M98 198h60" fill="none" stroke="#2f2412" stroke-linecap="round" stroke-width="10"/>
</svg>
